<svg xmlns="http://www.w3.org/2000/svg" width="50.508" height="50.5" viewBox="0 0 50.508 50.5">
  <g id="Analyse" transform="translate(-83.778 -81.39)">
    <path id="Tracé_2460" data-name="Tracé 2460" d="M105.78,81.39c.858.124,1.727.2,2.573.382,8.273,1.811,13.77,6.755,16.137,14.871A20.722,20.722,0,1,1,96.958,82.835a20.354,20.354,0,0,1,5.926-1.36,3.569,3.569,0,0,0,.431-.084Zm-20.2,20.731A18.936,18.936,0,1,0,104.549,83.2,18.943,18.943,0,0,0,85.581,102.121Z" fill="#084"/>
    <path id="Tracé_2461" data-name="Tracé 2461" d="M1143.931,1140.055c-.038.07-.08.137-.111.21a1.793,1.793,0,0,1-2.961.64q-3.637-3.575-7.214-7.209a1.793,1.793,0,0,1,2.553-2.52q3.622,3.589,7.209,7.214a4.22,4.22,0,0,1,.525.877Z" transform="translate(-1009.644 -1009.554)" fill="#084"/>
    <path id="Tracé_2462" data-name="Tracé 2462" d="M1042.146,1038.62l2.05,2.046-1.107,1.116-2.089-2.108Z" transform="translate(-921.002 -921.009)" fill="#084"/>
    <path id="Tracé_2463" data-name="Tracé 2463" d="M179.488,194.278a17.13,17.13,0,1,1,17.04,17.149A17.106,17.106,0,0,1,179.488,194.278Zm24.951-1.785c.732,0,1.356.005,1.98,0a.9.9,0,1,0-.008-1.787c-.9-.007-1.809-.018-2.712.006a.684.684,0,0,1-.671-.373q-2.05-3.192-4.124-6.368a2.569,2.569,0,0,0-4.579.006q-2.069,3.178-4.124,6.369a.678.678,0,0,1-.67.366c-.92-.023-1.841,0-2.762-.008a.864.864,0,0,0-.927.652.878.878,0,0,0,.881,1.135c.661.017,1.322,0,2.056,0-.138.227-.219.368-.306.5-.742,1.144-1.5,2.279-2.223,3.432a2.567,2.567,0,0,0,.016,2.967,2.614,2.614,0,0,0,2.3,1.211q8.062,0,16.125,0c.082,0,.164-.009.246-.014a2.6,2.6,0,0,0,1.807-.9,2.628,2.628,0,0,0,.21-3.32C206.139,195.1,205.313,193.843,204.438,192.493Zm1.2,11.73c-.608,0-1.133,0-1.657,0-.65.006-1.065.367-1.057.908s.406.873,1.03.879c.558.006,1.116.009,1.674,0a1.778,1.778,0,0,0,1.8-1.816c.01-.541.006-1.083,0-1.624-.007-.658-.355-1.052-.914-1.044-.543.008-.87.381-.878,1.022-.006.539,0,1.077,0,1.674ZM187.6,184.388c.626,0,1.2.017,1.769,0a.883.883,0,0,0,.916-.9.854.854,0,0,0-.908-.893c-.624-.02-1.249-.028-1.873,0a1.727,1.727,0,0,0-1.7,1.71c-.027.59-.019,1.183-.007,1.775.013.637.359,1,.908.994s.878-.395.888-1.027C187.608,185.523,187.6,185,187.6,184.388Zm18.04,0c0,.6-.006,1.135,0,1.67.009.64.338,1.011.884,1.015a.9.9,0,0,0,.908-1c.008-.557.01-1.115,0-1.672a1.772,1.772,0,0,0-1.754-1.812,12.814,12.814,0,0,0-1.816.014,1.217,1.217,0,0,0-.775.412.878.878,0,0,0,.8,1.367c.567.024,1.136.006,1.756.006ZM187.6,204.222c0-.633.016-1.2,0-1.775a.886.886,0,0,0-.89-.919.859.859,0,0,0-.9.9c-.02.639-.028,1.28.006,1.917a1.736,1.736,0,0,0,1.735,1.665c.574.014,1.148.008,1.721,0,.639-.006,1.011-.332,1.017-.879.006-.562-.38-.9-1.043-.908C188.721,204.217,188.2,204.222,187.6,204.222Z" transform="translate(-92.088 -92.165)" fill="#084"/>
    <path id="Tracé_2464" data-name="Tracé 2464" d="M402.036,581.854c.148.5.378.9.968.892.557-.01.795-.383.92-.892,1.523,0,3.033-.008,4.541.014.133,0,.3.168.389.3.974,1.482,1.93,2.975,2.9,4.458a.946.946,0,0,1,.132,1.056,1.019,1.019,0,0,1-1,.486q-7.346-.009-14.692,0c-.411,0-.822.008-1.232,0a.888.888,0,0,1-.8-1.43q1.481-2.327,3-4.628a.6.6,0,0,1,.426-.241C399.066,581.847,400.544,581.854,402.036,581.854Zm.952,4.514a.9.9,0,0,0,.887-.917.87.87,0,0,0-.87-.875.9.9,0,0,0-.922.882.931.931,0,0,0,.905.91Z" transform="translate(-298.46 -481.526)" fill="#084"/>
    <path id="Tracé_2465" data-name="Tracé 2465" d="M517.561,373.469H514c.1-.168.168-.3.249-.427q1.715-2.646,3.434-5.289c.523-.8,1.056-.8,1.581.006q1.718,2.644,3.43,5.292c.076.118.137.246.227.411h-3.557c0-.534,0-1.055,0-1.576-.008-.707-.345-1.117-.9-1.11s-.893.433-.9,1.126C517.559,372.409,517.561,372.915,517.561,373.469Z" transform="translate(-413.943 -274.948)" fill="#084"/>
  </g>
</svg>
