<svg xmlns="http://www.w3.org/2000/svg" width="24.153" height="24.157" viewBox="0 0 24.153 24.157">
  <g id="Caisse" transform="translate(0 0)">
    <path id="Tracé_2447" data-name="Tracé 2447" d="M89.2,24.21h6.746a.574.574,0,0,1,.248.449c-.008.912,0,1.824-.005,2.736a.4.4,0,0,1-.441.441c-.173.006-.346,0-.519,0H94.193v2.816h1.445c.4,0,.5.084.575.469q.976,5.1,1.951,10.2c.091.475-.011.593-.5.6H76.341c-.079,0-.157,0-.236,0-.376-.014-.491-.161-.421-.525q.435-2.267.868-4.535.55-2.88,1.1-5.76c.069-.361.177-.445.545-.447.448,0,.9,0,1.345,0h.946c0-.276-.008-.525,0-.775a.4.4,0,0,1,.448-.431q1.356-.005,2.712,0a.4.4,0,0,1,.455.445c0,.242,0,.485,0,.744h6.826v-2.8H89.483c-.4,0-.533-.131-.535-.538,0-.841.007-1.683,0-2.524A.612.612,0,0,1,89.2,24.21Zm1.366,11.273h3.514c.359,0,.5-.141.5-.5q0-1.309,0-2.617c0-.372-.139-.509-.516-.509h-7c-.389,0-.527.135-.528.524q0,1.285,0,2.571c0,.4.136.532.543.532ZM83.3,32.47c0-.644,0-1.288,0-1.931,0-.213-.087-.3-.3-.292-.471.007-.942.009-1.413,0-.229,0-.3.1-.3.313q.006,1.908,0,3.816c0,.221.09.311.311.307.463-.008.926,0,1.39,0,.261,0,.308-.052.309-.324Q83.307,33.412,83.3,32.47ZM82.3,36.286c.77,0,1.54,0,2.31,0,.219,0,.319-.077.311-.3-.009-.275,0-.55,0-.825,0-.492,0-.485-.5-.486-.208,0-.3.076-.306.288-.011.409-.133.518-.55.519h-2.5c-.433,0-.551-.1-.567-.529-.008-.2-.091-.289-.29-.275a1.737,1.737,0,0,1-.236,0c-.2-.014-.285.089-.283.282,0,.33,0,.66,0,.99,0,.288.052.335.349.336Zm9.485-8.441v2.791h1.578V27.846ZM90.562,39.915c-.141,0-.283-.007-.424,0a.4.4,0,0,0-.026.792,7.592,7.592,0,0,0,.871,0,.4.4,0,0,0-.021-.794C90.829,39.909,90.7,39.915,90.562,39.915Zm3.208-1.608c-.141,0-.283-.007-.424,0a.374.374,0,0,0-.372.357.37.37,0,0,0,.323.423,6.269,6.269,0,0,0,.94,0,.374.374,0,0,0,.338-.412.384.384,0,0,0-.381-.372C94.053,38.3,93.911,38.306,93.77,38.307Zm.015,1.608c-.141,0-.283-.006-.424,0a.393.393,0,0,0-.389.367.389.389,0,0,0,.356.424,7.123,7.123,0,0,0,.895,0,.4.4,0,0,0-.037-.791C94.053,39.909,93.919,39.915,93.785,39.915Zm0-3.218v0h-.4a.367.367,0,0,0-.047,0,.388.388,0,0,0-.364.39.358.358,0,0,0,.333.39,6.239,6.239,0,0,0,.939,0,.354.354,0,0,0,.329-.392.377.377,0,0,0-.366-.385c-.141-.014-.283,0-.425,0Zm-3.239,1.609h0c-.141,0-.283-.008-.424,0a.374.374,0,0,0-.365.36.349.349,0,0,0,.3.412,5.708,5.708,0,0,0,.984,0,.373.373,0,0,0,.315-.408.394.394,0,0,0-.389-.368C90.829,38.3,90.688,38.306,90.546,38.306Zm.026-1.609v0c-.157,0-.315-.013-.47,0a.359.359,0,0,0-.344.355.352.352,0,0,0,.3.413,6.557,6.557,0,0,0,.985,0,.362.362,0,0,0,.315-.4A.376.376,0,0,0,91,36.7C90.855,36.688,90.713,36.7,90.572,36.7Zm-3.237,1.609c-.141,0-.283-.007-.423,0a.368.368,0,0,0-.373.352.351.351,0,0,0,.292.418,5.962,5.962,0,0,0,1.006,0,.354.354,0,0,0,.3-.417.372.372,0,0,0-.373-.355C87.618,38.3,87.476,38.307,87.335,38.306Zm.021,1.609v0h-.4a.406.406,0,0,0-.047,0,.39.39,0,0,0-.374.38.377.377,0,0,0,.342.409,6.9,6.9,0,0,0,.917,0,.382.382,0,0,0,.342-.411.393.393,0,0,0-.379-.377C87.625,39.908,87.49,39.915,87.356,39.915Zm0-3.22v0h-.4l-.047,0a.392.392,0,0,0-.374.381.373.373,0,0,0,.344.4,6.685,6.685,0,0,0,.916,0,.375.375,0,0,0,.342-.408.391.391,0,0,0-.381-.374C87.622,36.687,87.488,36.7,87.355,36.7Z" transform="translate(-74.856 -24.21)" fill="#fff"/>
    <path id="Tracé_2448" data-name="Tracé 2448" d="M51.242,1140.261a.645.645,0,0,1-.574.24q-11.507-.007-23.013,0c-.457,0-.565-.11-.565-.572v-4.481c0-.48.1-.582.578-.582H39.411l11.248,0a.588.588,0,0,1,.585.259Z" transform="translate(-27.09 -1116.344)" fill="#fff"/>
    <path id="Tracé_2449" data-name="Tracé 2449" d="M778.727,532.971h-2.873c-.287,0-.334-.046-.336-.324,0-.463,0-.927,0-1.39,0-.221.091-.307.311-.307q2.909.006,5.818,0c.215,0,.318.075.314.3q-.014.707,0,1.413c0,.225-.092.308-.31.307C780.675,532.968,779.7,532.971,778.727,532.971Z" transform="translate(-763.038 -522.502)" fill="#fff"/>
  </g>
</svg>
