<svg xmlns="http://www.w3.org/2000/svg" width="19.727" height="17.8" viewBox="0 0 19.727 17.8">
  <g id="calendar" transform="translate(0 -25)">
    <path id="Tracé_691" data-name="Tracé 691" d="M19.727,30.548V28.275a1.736,1.736,0,0,0-1.734-1.734h-.231V28.66a.578.578,0,0,1-1.156,0V25.578a.578.578,0,0,0-1.156,0v.963H11.6V28.66a.578.578,0,0,1-1.156,0V25.578a.578.578,0,0,0-1.156,0v.963H5.433V28.66a.578.578,0,0,1-1.156,0V25.578a.578.578,0,0,0-1.156,0v.963H1.734A1.736,1.736,0,0,0,0,28.275v2.273Z" fill="#084"/>
    <path id="Tracé_692" data-name="Tracé 692" d="M0,199v9.363A1.736,1.736,0,0,0,1.734,210.1H17.993a1.736,1.736,0,0,0,1.734-1.734V199Zm5.548,8.014H4.315a.578.578,0,1,1,0-1.156H5.548a.578.578,0,1,1,0,1.156Zm0-2.466H4.315a.578.578,0,1,1,0-1.156H5.548a.578.578,0,1,1,0,1.156Zm0-2.466H4.315a.578.578,0,0,1,0-1.156H5.548a.578.578,0,0,1,0,1.156Zm4.932,4.932H9.247a.578.578,0,1,1,0-1.156H10.48a.578.578,0,1,1,0,1.156Zm0-2.466H9.247a.578.578,0,1,1,0-1.156H10.48a.578.578,0,1,1,0,1.156Zm0-2.466H9.247a.578.578,0,0,1,0-1.156H10.48a.578.578,0,0,1,0,1.156Zm4.932,4.932H14.179a.578.578,0,1,1,0-1.156h1.233a.578.578,0,1,1,0,1.156Zm0-2.466H14.179a.578.578,0,1,1,0-1.156h1.233a.578.578,0,1,1,0,1.156Zm0-2.466H14.179a.578.578,0,0,1,0-1.156h1.233a.578.578,0,0,1,0,1.156Z" transform="translate(0 -167.296)" fill="#084"/>
  </g>
</svg>
