<svg xmlns="http://www.w3.org/2000/svg" width="21.597" height="20.268" viewBox="0 0 21.597 20.268">
  <g id="cloud-computing" transform="translate(0.001 0)">
    <path id="Tracé_694" data-name="Tracé 694" d="M17.44,5.438a6.757,6.757,0,0,0-13.253,0,4.73,4.73,0,0,0,.545,9.429H8.111a.676.676,0,1,0,0-1.351H4.732a3.379,3.379,0,1,1,.04-6.757.676.676,0,0,0,.672-.6,5.406,5.406,0,0,1,10.739,0,.716.716,0,0,0,.711.6,3.379,3.379,0,1,1,0,6.757H13.516a.676.676,0,1,0,0,1.351H16.9a4.73,4.73,0,0,0,.545-9.425Zm0,0" transform="translate(0 0)" fill="#fff"/>
    <path id="Tracé_695" data-name="Tracé 695" d="M178.163,215.639l-1.713,1.713v-8.5a.676.676,0,1,0-1.351,0v8.5l-1.713-1.713a.676.676,0,0,0-.972.939l.017.017,2.866,2.866a.678.678,0,0,0,.218.146.668.668,0,0,0,.52,0,.676.676,0,0,0,.218-.146l2.866-2.866a.676.676,0,0,0-.939-.972Zm0,0" transform="translate(-164.96 -199.391)" fill="#fff"/>
  </g>
</svg>
