<svg xmlns="http://www.w3.org/2000/svg" width="44" height="44" viewBox="0 0 44 44">
  <g id="Groupe_1081" data-name="Groupe 1081" transform="translate(-330 -146)">
    <g id="Money" transform="translate(338.771 156.963)">
      <path id="Tracé_2455" data-name="Tracé 2455" d="M62.87,931c.066-.514.139-1.027.2-1.542.175-1.561.34-3.123.515-4.684a.686.686,0,0,1,.761-.651q1.884.08,3.767.18a.564.564,0,0,1,.593.684q-.231,3.006-.462,6.011a.608.608,0,0,1-.7.648c-1.365,0-2.73,0-4.1,0a.6.6,0,0,1-.574-.3Zm1.945-1.287a1.084,1.084,0,1,0,1.089-1.09,1.1,1.1,0,0,0-1.089,1.09Z" transform="translate(-62.87 -909.813)" fill="#fff"/>
      <path id="Tracé_2456" data-name="Tracé 2456" d="M447.272,915.9a.592.592,0,0,0,.373.507,6.4,6.4,0,0,0,1.783.581,10.314,10.314,0,0,0,5.9-.67c.757-.281,1.488-.636,2.22-.979.538-.252.913-.249,1.21.063a.991.991,0,0,1,.037,1.263,3.155,3.155,0,0,1-.762.8,27.041,27.041,0,0,1-5.637,3.146,2.156,2.156,0,0,1-.964.155c-1.226-.114-2.453-.24-3.669-.429-1.723-.269-3.436-.595-5.153-.9a1.719,1.719,0,0,0-1.31.41c-.109.074-.2.172-.317.238-.08.046-.21.1-.264.069a.352.352,0,0,1-.131-.266c.006-.39.033-.777.058-1.165q.166-2.552.335-5.1c.021-.318.083-.408.386-.447,1.246-.163,2.492-.323,3.739-.469a6.327,6.327,0,0,1,2.444.33c1.6.447,3.186.936,4.773,1.421a.808.808,0,0,1,.259,1.387,1.833,1.833,0,0,1-1.106.449,10.067,10.067,0,0,1-2.982-.219c-.309-.053-.619-.107-.929-.156C447.479,915.9,447.39,915.908,447.272,915.9Z" transform="translate(-433.584 -898.586)" fill="#fff"/>
      <path id="Tracé_2457" data-name="Tracé 2457" d="M708.868,159.359a6.726,6.726,0,1,1,6.7,6.724A6.746,6.746,0,0,1,708.868,159.359Zm11.9,0a5.164,5.164,0,1,0-5.158,5.178A5.172,5.172,0,0,0,720.763,159.354Z" transform="translate(-696.888 -152.64)" fill="#fff"/>
      <path id="Tracé_2458" data-name="Tracé 2458" d="M996.71,357.64h3.607v1.094h-2.266v1.348h2.118v1.086h-2.118v2.373H996.71Z" transform="translate(-979.392 -353.838)" fill="#fff"/>
    </g>
    <g id="Ellipse_4" data-name="Ellipse 4" transform="translate(330 146)" fill="none" stroke="#fff" stroke-width="1.5">
      <circle cx="22" cy="22" r="22" stroke="none"/>
      <circle cx="22" cy="22" r="21.25" fill="none"/>
    </g>
  </g>
</svg>
