<svg xmlns="http://www.w3.org/2000/svg" width="44" height="44" viewBox="0 0 44 44">
  <g id="Groupe_1059" data-name="Groupe 1059" transform="translate(-337.383 -195.383)">
    <g id="Wallet" transform="translate(348.191 207.052)">
      <path id="Tracé_2441" data-name="Tracé 2441" d="M836.958,739.382a1.314,1.314,0,0,1-.766.919,1.9,1.9,0,0,1-.617.112q-3.622.011-7.244,0a1.283,1.283,0,0,1-1.395-1.407q0-1.258,0-2.517a1.284,1.284,0,0,1,1.405-1.4h7.047a1.346,1.346,0,0,1,1.57,1.048Zm-6.974-.73c.631-.015.843-.224.843-.846,0-.073,0-.146,0-.218a.628.628,0,0,0-.541-.616c-.611-.08-.983.062-1.1.42a.142.142,0,0,0-.012.042,5.459,5.459,0,0,0,.009.739.517.517,0,0,0,.4.422A2.976,2.976,0,0,0,829.983,738.652Z" transform="translate(-814.545 -724.56)" fill="#fff"/>
      <path id="Tracé_2442" data-name="Tracé 2442" d="M59.82,385.78h-.264l-7.09,0a2.059,2.059,0,0,0-2.014,1.242,2.629,2.629,0,0,0-.209.992c-.028.874-.011,1.75-.009,2.625a2.153,2.153,0,0,0,2.227,2.219q3.545.005,7.09,0h.272c.006.091.013.161.013.232q0,1.565,0,3.129a1.28,1.28,0,0,1-1.412,1.409h-18.3a1.284,1.284,0,0,1-1.409-1.415V382.473a1.275,1.275,0,0,1,1.373-1.382q9.191,0,18.383,0a1.239,1.239,0,0,1,1.355,1.279c.017,1.094,0,2.188,0,3.283A1.235,1.235,0,0,1,59.82,385.78Z" transform="translate(-38.72 -376.12)" fill="#fff"/>
      <path id="Tracé_2443" data-name="Tracé 2443" d="M573.936,177.591H563.647l-.007-.031c.411-.114.821-.23,1.232-.341l7-1.906a1.273,1.273,0,0,1,1.718.977C573.7,176.715,573.816,177.143,573.936,177.591Z" transform="translate(-555.389 -173.507)" fill="#fff"/>
      <path id="Tracé_2444" data-name="Tracé 2444" d="M300.38,68.942c.049-.028.1-.058.147-.083l7.654-3.793a1.235,1.235,0,0,1,1.632.3,11.17,11.17,0,0,1,.638,1.168c-.486.133-.933.259-1.381.381-2.465.673-4.927,1.358-7.4,2.008a6.48,6.48,0,0,1-1.278.081C300.39,68.984,300.385,68.964,300.38,68.942Z" transform="translate(-296.267 -64.891)" fill="#fff"/>
    </g>
    <g id="Ellipse_1" data-name="Ellipse 1" transform="translate(337.383 195.383)" fill="none" stroke="#fff" stroke-width="1.5">
      <circle cx="22" cy="22" r="22" stroke="none"/>
      <circle cx="22" cy="22" r="21.25" fill="none"/>
    </g>
  </g>
</svg>
