<svg xmlns="http://www.w3.org/2000/svg" width="41.249" height="41.247" viewBox="0 0 41.249 41.247">
  <g id="hand_and_money" data-name="hand and money" transform="translate(-12 -14.881)">
    <path id="Tracé_19798" data-name="Tracé 19798" d="M12,986.075a1.425,1.425,0,0,1,1.546-.948c1.14.028,2.28.007,3.421.008,1.061,0,1.5.432,1.5,1.481,0,3.676-.013,7.352.011,11.027a1.471,1.471,0,0,1-.917,1.563H12.885a1.856,1.856,0,0,1-.885-.885Z" transform="translate(0 -943.079)" fill="#084"/>
    <path id="Tracé_19799" data-name="Tracé 19799" d="M405.108,26.475a11.562,11.562,0,1,1-11.444-11.593A11.578,11.578,0,0,1,405.108,26.475ZM392.3,31.561c.15.82.6,1.272,1.24,1.272.67,0,1.114-.476,1.24-1.344.106-.031.221-.063.334-.1a3.139,3.139,0,0,0-.711-6.135c-.468-.028-.943.02-1.407-.034a1.067,1.067,0,0,1-.679-.326.923.923,0,0,1-.062-.7.658.658,0,0,1,.706-.428c.616-.007,1.234.005,1.852-.007a1.2,1.2,0,0,0,.247-2.378c-.091-.021-.183-.039-.272-.056-.177-.843-.616-1.281-1.263-1.269s-1.07.458-1.232,1.344c-.088.028-.177.056-.267.082a3.138,3.138,0,0,0,.634,6.149c.48.038.968-.007,1.447.038a.915.915,0,0,1,.623.272,1.04,1.04,0,0,1,.1.738.642.642,0,0,1-.693.444c-.631.009-1.261,0-1.892.008a1.172,1.172,0,0,0-1.16.879C390.867,30.76,391.345,31.382,392.3,31.561Z" transform="translate(-359.624 0)" fill="#084"/>
    <path id="Tracé_19800" data-name="Tracé 19800" d="M329.88,933.669V924.8c.5,0,.992-.015,1.48.006a.414.414,0,0,0,.488-.336,4.961,4.961,0,0,1,4.841-3.554c2.63-.031,5.261-.02,7.892,0a2.584,2.584,0,0,1,.709,5.086,3.923,3.923,0,0,1-.917.094c-1.235.012-2.47-.005-3.7.015a1.177,1.177,0,0,0-1.146,1.046,1.208,1.208,0,0,0,.792,1.265,2.263,2.263,0,0,0,.472.09,2.511,2.511,0,0,0,.322.005c1.248,0,2.5-.014,3.745,0a4.167,4.167,0,0,0,3.172-1.307q2.768-2.813,5.578-5.583a3.933,3.933,0,0,1,5.547-.193,1.2,1.2,0,0,1,.087,1.868q-4.434,4.452-8.89,8.876a5.123,5.123,0,0,1-3.675,1.5c-5.53.02-11.06.01-16.59.01A1.485,1.485,0,0,1,329.88,933.669Z" transform="translate(-308.979 -880.147)" fill="#084"/>
    <path id="Tracé_19801" data-name="Tracé 19801" d="M108.114,569.94a1.231,1.231,0,0,1,1.233.809,1.135,1.135,0,0,1-.436,1.354c-.952.52-1.921,1.012-2.909,1.458a1.142,1.142,0,0,1-1.46-.592,1.158,1.158,0,0,1,.437-1.547c.919-.5,1.865-.945,2.8-1.4A1.16,1.16,0,0,1,108.114,569.94Z" transform="translate(-89.823 -539.517)" fill="#084"/>
    <path id="Tracé_19802" data-name="Tracé 19802" d="M1307.624,568.51a4.8,4.8,0,0,1,.6.2c.82.4,1.636.8,2.447,1.22a1.207,1.207,0,1,1-1.067,2.162c-.856-.416-1.708-.84-2.552-1.28a1.188,1.188,0,0,1-.612-1.395A1.287,1.287,0,0,1,1307.624,568.51Z" transform="translate(-1258.151 -538.128)" fill="#084"/>
    <path id="Tracé_19803" data-name="Tracé 19803" d="M1307.745,157.062a1.232,1.232,0,0,1-1.275-.86,1.168,1.168,0,0,1,.532-1.358c.91-.486,1.832-.952,2.769-1.384a1.2,1.2,0,0,1,1.072,2.132c-.909.488-1.841.933-2.767,1.386A1.234,1.234,0,0,1,1307.745,157.062Z" transform="translate(-1258.177 -134.601)" fill="#084"/>
    <path id="Tracé_19804" data-name="Tracé 19804" d="M109.379,155.845a1.175,1.175,0,0,1-1.638,1.1c-.941-.42-1.862-.892-2.77-1.381a1.161,1.161,0,0,1-.465-1.54,1.173,1.173,0,0,1,1.528-.6c.937.43,1.857.9,2.769,1.383A1.093,1.093,0,0,1,109.379,155.845Z" transform="translate(-89.797 -134.568)" fill="#084"/>
  </g>
</svg>
