<svg xmlns="http://www.w3.org/2000/svg" width="32.711" height="39.439" viewBox="0 0 32.711 39.439">
  <g id="money_of_bag" data-name="money of bag" transform="translate(-145.974 -21.336)">
    <path id="Tracé_19796" data-name="Tracé 19796" d="M176.884,43.259a29.8,29.8,0,0,0-9.544-11.672c-.889-.642-1.877-1.147-2.932-1.783a.977.977,0,0,0,.286-.15,13.822,13.822,0,0,0,3.753-6.643,3.3,3.3,0,0,0,.088-.876c-.015-.527-.178-.722-.7-.694a12.656,12.656,0,0,0-2.128.275c-1.211.277-2.411.606-3.6.956a4.216,4.216,0,0,1-2.823-.141c-.741-.293-1.469-.61-2.209-.9a4.985,4.985,0,0,0-.922-.264,1.467,1.467,0,0,0-1.824,1.5,6.331,6.331,0,0,0,.81,2.976A11.31,11.31,0,0,0,158.72,30.1c-.017.027-.027.072-.054.086a21.6,21.6,0,0,0-6.367,5.388A27.848,27.848,0,0,0,146.6,45.9a13.368,13.368,0,0,0-.414,6.315A8.843,8.843,0,0,0,150.78,58.4a17.93,17.93,0,0,0,6.841,2.054c1.095.13,2.2.176,3.3.263.114.009.226.035.339.054h3.467c.816-.076,1.635-.135,2.449-.231a18.1,18.1,0,0,0,6.722-1.931,8.646,8.646,0,0,0,4.788-8.133A16.948,16.948,0,0,0,176.884,43.259Z" transform="translate(0 0)" fill="#084"/>
    <path id="Tracé_19797" data-name="Tracé 19797" d="M638.39,745.723h3.4v1.912h-3.4v4.938h-2.67V741.22h6.263v1.925H638.39Z" transform="translate(-476.522 -700.446)" fill="#fff"/>
  </g>
</svg>
