<svg xmlns="http://www.w3.org/2000/svg" width="42.364" height="42.049" viewBox="0 0 42.364 42.049">
  <g id="money_t" data-name="money t" transform="translate(-36.548 -56.34)">
    <path id="Tracé_19489" data-name="Tracé 19489" d="M202.892,204.639a3.969,3.969,0,0,1-.226-1.134,13.552,13.552,0,1,0-.079,5.3,6.5,6.5,0,0,1,.3-1.454v-.329c-.071-.072-.032-.163-.043-.246.011-.083-.029-.174.043-.247v-1.067c-.07-.069-.033-.158-.043-.238v-.146c0-.064-.014-.134.043-.185Zm-9.983-2.65h-4.085v2.931h3.869V207.1h-3.869v5.615h-3.036V199.8h7.122Z" transform="translate(-123.98 -121.13)" fill="#084"/>
    <path id="Tracé_19490" data-name="Tracé 19490" d="M52.016,56.34a10.847,10.847,0,0,0,1.712.238,16.987,16.987,0,0,1,7,2.489,6.753,6.753,0,0,1,2.846,3.344A4.542,4.542,0,0,1,62.4,67.238a11.212,11.212,0,0,1-5.02,2.969,23.754,23.754,0,0,1-11.466.681A16.606,16.606,0,0,1,39.8,68.669a7.75,7.75,0,0,1-2.431-2.284,4.522,4.522,0,0,1,.617-5.814,11.682,11.682,0,0,1,4.781-2.985,20.914,20.914,0,0,1,5.513-1.163c.073-.007.17.031.2-.081h.246c.072.071.163.032.247.043.082-.011.173.029.246-.043h.41a.63.63,0,0,0,.493,0h.329a.63.63,0,0,0,.493,0h.411c.067.067.151.034.229.043s.131.012.181-.043Z" transform="translate(-0.032 0)" fill="#084"/>
    <path id="Tracé_19491" data-name="Tracé 19491" d="M156,56.34a.37.37,0,0,1-.493,0Z" transform="translate(-105.911 0)" fill="#084"/>
    <path id="Tracé_19492" data-name="Tracé 19492" d="M163.523,56.34a.37.37,0,0,1-.493,0Z" transform="translate(-112.606 0)" fill="#084"/>
    <path id="Tracé_19493" data-name="Tracé 19493" d="M147.561,56.448c-.086,0-.193.069-.241-.068h.247c.027.018.036.033.025.047a.041.041,0,0,1-.031.021Z" transform="translate(-98.62 -0.036)" fill="#084"/>
    <path id="Tracé_19494" data-name="Tracé 19494" d="M149.52,56.448V56.38h.246C149.711,56.486,149.613,56.456,149.52,56.448Z" transform="translate(-100.578 -0.036)" fill="#084"/>
    <path id="Tracé_19495" data-name="Tracé 19495" d="M171.519,56.43c-.092.009-.191.041-.249-.07h.246c.025.014.035.03.027.046S171.528,56.43,171.519,56.43Z" transform="translate(-119.942 -0.018)" fill="#084"/>
    <path id="Tracé_19496" data-name="Tracé 19496" d="M419.048,309.279c-.1-.061-.081-.158-.073-.251.026-.033.05-.029.073.005Z" transform="translate(-340.466 -224.946)" fill="#084"/>
    <path id="Tracé_19497" data-name="Tracé 19497" d="M418.924,321.484c-.012-.1-.03-.191.072-.255v.247C418.98,321.51,418.956,321.514,418.924,321.484Z" transform="translate(-340.419 -235.83)" fill="#084"/>
    <path id="Tracé_19498" data-name="Tracé 19498" d="M418.927,323.488a.534.534,0,0,1,.072-.008v.246C418.865,323.681,418.94,323.572,418.927,323.488Z" transform="translate(-340.422 -237.833)" fill="#084"/>
    <path id="Tracé_19499" data-name="Tracé 19499" d="M173.54,56.43v-.07h.16C173.68,56.457,173.608,56.438,173.54,56.43Z" transform="translate(-121.963 -0.018)" fill="#084"/>
    <path id="Tracé_19500" data-name="Tracé 19500" d="M419.006,306.429c-.008-.067-.026-.138.07-.159v.163C419.05,306.471,419.025,306.471,419.006,306.429Z" transform="translate(-340.494 -222.511)" fill="#084"/>
    <path id="Tracé_19501" data-name="Tracé 19501" d="M419.033,307.72h.07v.165a.543.543,0,0,1-.073-.005Z" transform="translate(-340.522 -223.802)" fill="#084"/>
    <path id="Tracé_19502" data-name="Tracé 19502" d="M36.559,174.53a18.321,18.321,0,0,0,10.124,4.2,26.605,26.605,0,0,0,7.021.005c-.276.313-.517.579-.753.849a15.589,15.589,0,0,0-2.536,3.992c-.076.173-.127.329-.393.32a21.1,21.1,0,0,1-9.306-2.071,8.759,8.759,0,0,1-3.241-2.633,4.621,4.621,0,0,1-.918-2.829C36.565,175.771,36.559,175.184,36.559,174.53Z" transform="translate(-0.007 -105.224)" fill="#084"/>
    <path id="Tracé_19503" data-name="Tracé 19503" d="M51.487,318.368a8.523,8.523,0,0,1-1.684.077,20.8,20.8,0,0,1-9.106-2.067,8.713,8.713,0,0,1-3.24-2.644,4.613,4.613,0,0,1-.909-2.793c.008-.6,0-1.2,0-1.87a13.981,13.981,0,0,0,2.084,1.576,19.83,19.83,0,0,0,6.976,2.467,25.963,25.963,0,0,0,3.546.364c.179.007.323.011.383.258a15.671,15.671,0,0,0,1.9,4.5A.911.911,0,0,1,51.487,318.368Z" transform="translate(0 -225.004)" fill="#084"/>
    <path id="Tracé_19504" data-name="Tracé 19504" d="M36.628,242.1c2.952,2.609,6.492,3.694,10.277,4.18.775.1,1.551.159,2.329.185.251.008.287.1.237.329a13.648,13.648,0,0,0-.344,4.353c.029.309-.17.219-.308.21a22.433,22.433,0,0,1-4.726-.743,13.951,13.951,0,0,1-5.274-2.523,5.307,5.307,0,0,1-2.173-3.542A22.989,22.989,0,0,1,36.628,242.1Z" transform="translate(-0.048 -165.381)" fill="#084"/>
  </g>
</svg>
