<svg xmlns="http://www.w3.org/2000/svg" width="20.385" height="24.578" viewBox="0 0 20.385 24.578">
  <g id="money_of_bag" data-name="money of bag" transform="translate(0)">
    <path id="Tracé_19796" data-name="Tracé 19796" d="M165.237,35a18.569,18.569,0,0,0-5.948-7.274c-.554-.4-1.17-.715-1.827-1.111a.609.609,0,0,0,.178-.094,8.614,8.614,0,0,0,2.339-4.14,2.056,2.056,0,0,0,.055-.546c-.009-.329-.111-.45-.438-.432a7.887,7.887,0,0,0-1.326.171c-.755.172-1.5.378-2.246.6a2.628,2.628,0,0,1-1.76-.088c-.462-.182-.916-.38-1.377-.56a3.107,3.107,0,0,0-.574-.165.914.914,0,0,0-1.137.934,3.945,3.945,0,0,0,.5,1.855,7.049,7.049,0,0,0,2.235,2.655c-.011.017-.017.045-.034.054a13.46,13.46,0,0,0-3.968,3.358,17.355,17.355,0,0,0-3.552,6.437,8.331,8.331,0,0,0-.258,3.936,5.511,5.511,0,0,0,2.863,3.854,11.174,11.174,0,0,0,4.264,1.28c.682.081,1.37.11,2.056.164.071.006.141.022.212.034h2.161c.509-.047,1.019-.084,1.526-.144a11.279,11.279,0,0,0,4.189-1.2,5.388,5.388,0,0,0,2.984-5.069A10.562,10.562,0,0,0,165.237,35Z" transform="translate(-145.974 -21.336)" fill="#fff"/>
    <path id="Tracé_19797" data-name="Tracé 19797" d="M637.384,744.026h2.12v1.191h-2.12v3.077H635.72V741.22h3.9v1.2h-2.239Z" transform="translate(-627.479 -729.106)" fill="#017038"/>
  </g>
</svg>
