<svg xmlns="http://www.w3.org/2000/svg" width="53.548" height="53.553" viewBox="0 0 53.548 53.553">
  <path id="no" d="M82.8,110.4H79.658a2.755,2.755,0,0,0-.4-.086,25.485,25.485,0,0,1-11.683-3.684,26.425,26.425,0,0,1-12.7-18.4c-.187-1-.28-2.026-.417-3.037V82.059c.032-.185.069-.369.1-.555.167-1.153.263-2.321.51-3.456a26.793,26.793,0,0,1,31.793-20.57A26.8,26.8,0,0,1,107.86,86.307a25.867,25.867,0,0,1-6.532,14.967,26.291,26.291,0,0,1-15.487,8.711C84.833,110.163,83.811,110.264,82.8,110.4ZM69.693,67.23,97.621,95.154A20.043,20.043,0,0,0,69.693,67.23Zm23.063,32.788L64.828,72.093a20.043,20.043,0,0,0,27.928,27.925Z" transform="translate(-54.45 -56.847)" fill="#008442"/>
</svg>
