<svg xmlns="http://www.w3.org/2000/svg" width="52.639" height="52.626" viewBox="0 0 52.639 52.626">
  <path id="ok" d="M50.37,78.243V75.157c.041-.354.087-.708.125-1.063a25.659,25.659,0,0,1,4.321-11.949,26.084,26.084,0,0,1,17.4-11.37c.973-.179,1.961-.272,2.942-.405h3.086c.881.113,1.766.192,2.64.339a26.473,26.473,0,0,1,22,28.62,24.68,24.68,0,0,1-5.658,13.763c-6,7.242-13.736,10.561-23.129,9.8a24.475,24.475,0,0,1-11.951-4.3,26.093,26.093,0,0,1-11.371-17.4C50.6,80.213,50.5,79.224,50.37,78.243ZM88.509,66.706,73.72,80.146,66.4,72.825l-4.31,4.311L73.572,88.623,92.661,71.269Z" transform="translate(-50.37 -50.37)" fill="#ee9136"/>
</svg>
