<svg xmlns="http://www.w3.org/2000/svg" width="48.673" height="49.168" viewBox="0 0 48.673 49.168">
  <g id="OPeration" transform="translate(-42.072 -39.001)">
    <path id="Tracé_2520" data-name="Tracé 2520" d="M161.015,138.964c-.916-.123-1.835-.23-2.748-.374a26.788,26.788,0,0,1-7.694-2.465c-.825-.406-.961-.379-1.557.307-.5.579-1.008,1.156-1.573,1.8l-2.522-6.75,7.024,1.58c-.238.28-.428.5-.62.727-.511.594-.417,1.068.291,1.4a26.385,26.385,0,0,0,12.028,2.447,25.987,25.987,0,0,0,24.675-21.368A25.561,25.561,0,0,0,181.177,93.2a4.924,4.924,0,0,0-.525-.42l-.078-.23a3.164,3.164,0,0,0,.529-.324,4.65,4.65,0,0,0,.465-.618c1.137,1.348,2.237,2.516,3.18,3.8a26.807,26.807,0,0,1,5.288,17.057,27.4,27.4,0,0,1-22.1,25.99c-1.068.2-2.156.286-3.235.428-.14.018-.278.054-.417.082Z" transform="translate(-99.303 -50.796)" fill="#084"/>
    <path id="Tracé_2521" data-name="Tracé 2521" d="M66.241,78.222c-.087-.054-.2-.114-.3-.187-.717-.511-1.421-1.042-2.155-1.529a2.016,2.016,0,0,0-.793-.259A4.914,4.914,0,0,0,58.561,77.6a1.468,1.468,0,0,1-1.807.292c-.819-.354-1.7-.569-2.538-.878a.816.816,0,0,1-.431-.429c-.294-.793-.545-1.6-.812-2.409-.015-.045-.022-.094-.038-.138a6.232,6.232,0,0,0-2.946-2.114c-.849-.013-1.7,0-2.547-.051a.937.937,0,0,1-.623-.316c-.669-.879-1.31-1.781-1.932-2.693a.81.81,0,0,1-.089-.6c.238-.846.537-1.676.772-2.523a2.046,2.046,0,0,0,.006-.836,4.92,4.92,0,0,0-2.656-3.8,1.481,1.481,0,0,1-.836-1.634,24.3,24.3,0,0,0,.024-2.642.676.676,0,0,1,.331-.629c.695-.488,1.385-.983,2.049-1.512a2.15,2.15,0,0,0,.528-.706,4.865,4.865,0,0,0,.1-4.584,1.538,1.538,0,0,1,.307-1.892c.574-.642,1.024-1.393,1.564-2.068a.943.943,0,0,1,.62-.314c.847-.039,1.7,0,2.546-.038a2.146,2.146,0,0,0,.841-.261,4.837,4.837,0,0,0,2.767-3.657,1.534,1.534,0,0,1,1.367-1.346,22.206,22.206,0,0,0,2.423-.765.709.709,0,0,1,.745.11c.688.521,1.388,1.032,2.109,1.51a2.021,2.021,0,0,0,.793.266,4.954,4.954,0,0,0,4.434-1.367,1.464,1.464,0,0,1,1.81-.282,19.321,19.321,0,0,0,2.363.793.859.859,0,0,1,.664.651c.224.783.479,1.561.77,2.321a3.483,3.483,0,0,0,.541.755c.028.037.082.052.115.085a4.618,4.618,0,0,0,4.14,1.38,1.6,1.6,0,0,1,1.779.919,18.418,18.418,0,0,0,1.393,1.955.855.855,0,0,1,.153.912c-.281.782-.515,1.581-.762,2.376a6.086,6.086,0,0,0,1.1,3.449c.689.524,1.393,1.028,2.061,1.576a.933.933,0,0,1,.314.62c.024,1.089.015,2.179-.021,3.268a.879.879,0,0,1-.3.583c-.676.539-1.4,1.021-2.072,1.561a3.462,3.462,0,0,0-.531.708c-.009.012-.009.031-.017.044a5.254,5.254,0,0,0,.039,4.867,1.091,1.091,0,0,1-.2,1.258c-.617.756-1.155,1.576-1.76,2.344a.946.946,0,0,1-.618.32c-.831.046-1.665.034-2.5.045-.1,0-.193,0-.288,0a7.035,7.035,0,0,0-2.757,2.091c-.285.815-.577,1.628-.842,2.45a.676.676,0,0,1-.5.508c-1.056.318-2.1.665-3.155,1C66.462,78.169,66.368,78.189,66.241,78.222ZM62.105,45.639a12.951,12.951,0,1,0,12.95,12.977,12.975,12.975,0,0,0-12.95-12.977Z" transform="translate(0)" fill="#084"/>
    <path id="Tracé_2522" data-name="Tracé 2522" d="M311.824,285.276A11.513,11.513,0,1,1,300.27,273.8,11.529,11.529,0,0,1,311.824,285.276Zm-1.827.039a9.687,9.687,0,1,0-9.719,9.656A9.691,9.691,0,0,0,310,285.315Z" transform="translate(-238.223 -226.704)" fill="#084"/>
    <path id="Tracé_2523" data-name="Tracé 2523" d="M400.348,377.069a8.235,8.235,0,1,1-8.222-8.22A8.251,8.251,0,0,1,400.348,377.069Zm-7.957,5.261c.54.007.917-.269.867-.729-.046-.423.138-.563.476-.732a2.167,2.167,0,0,0,.232-3.854,7.161,7.161,0,0,0-1.266-.557c-.37-.15-.766-.244-1.116-.428-.512-.269-.683-.655-.546-1.046a.923.923,0,0,1,1.091-.577,8.36,8.36,0,0,1,1.573.545c.541.241.9.21,1.177-.207a.765.765,0,0,0-.335-1.139,7.737,7.737,0,0,0-1.58-.674c-.337-.1-.468-.21-.473-.565a.794.794,0,1,0-1.58.129.608.608,0,0,1-.365.71,2.319,2.319,0,0,0-.237,3.86,6.33,6.33,0,0,0,1.385.741c.347.156.734.224,1.09.364.386.152.758.369.666.867-.085.464-.49.548-.882.6a2.48,2.48,0,0,1-1.906-.623.821.821,0,0,0-1.3.086c-.294.393-.213.827.317,1.176a6.611,6.611,0,0,0,1.49.749c.342.116.49.23.5.6C391.7,382.139,391.917,382.324,392.391,382.331Z" transform="translate(-330.026 -318.481)" fill="#084"/>
  </g>
</svg>
