<svg xmlns="http://www.w3.org/2000/svg" width="27.942" height="28.4" viewBox="0 0 27.942 28.4">
  <path id="Paramétre" d="M65.89,67.365H59.843a.809.809,0,0,1-.548-.69c-.154-1.106-.341-2.208-.5-3.315a.5.5,0,0,0-.3-.414c-.66-.368-1.316-.745-1.959-1.143a.454.454,0,0,0-.474-.048c-1.042.427-2.089.841-3.135,1.258-.626.249-.9.155-1.23-.419l-2.569-4.5a.745.745,0,0,1,.209-1.132c.811-.658,1.615-1.327,2.44-1.966.281-.218.47-.414.307-.788a.765.765,0,0,1-.025-.33c.03-.58.054-1.16.1-1.738a.489.489,0,0,0-.207-.512c-.884-.654-1.754-1.327-2.628-1.994a.822.822,0,0,1-.267-1.251l2.514-4.4A.946.946,0,0,1,53,43.491c.971.4,1.945.8,2.912,1.218a.478.478,0,0,0,.5-.041c.681-.422,1.379-.816,2.065-1.23a.365.365,0,0,0,.145-.231q.257-1.656.5-3.315c.1-.731.32-.926,1.068-.926h5.02a1.162,1.162,0,0,1,.817.182c.215.179.13.421.163.642.168,1.114.35,2.226.51,3.341a.477.477,0,0,0,.283.391c.667.374,1.331.758,1.982,1.159a.439.439,0,0,0,.455.043c.845-.347,1.695-.685,2.543-1.024.274-.109.546-.229.828-.313a.7.7,0,0,1,.943.39l2.627,4.593a.745.745,0,0,1-.222,1.15c-.812.657-1.615,1.325-2.44,1.965-.274.213-.444.41-.295.768a.717.717,0,0,1,.03.3c-.029.58-.052,1.161-.1,1.739a.531.531,0,0,0,.254.571c.988.666,1.962,1.356,2.939,2.036a.594.594,0,0,1,.255.765,1.8,1.8,0,0,1-.149.326q-1.324,2.322-2.651,4.642a.752.752,0,0,1-1.127.382c-1.063-.424-2.125-.851-3.19-1.268a.424.424,0,0,0-.321.005q-1.059.6-2.1,1.232a.51.51,0,0,0-.231.3c-.177,1.057-.357,2.113-.489,3.175A.991.991,0,0,1,65.89,67.365Zm-3.1-19.125a4.992,4.992,0,1,0,4.952,5.048A5.076,5.076,0,0,0,62.786,48.24Z" transform="translate(-48.885 -38.965)" fill="#f2f2f2"/>
</svg>
