<svg xmlns="http://www.w3.org/2000/svg" width="39.598" height="39.651" viewBox="0 0 39.598 39.651">
  <path id="Tracé_19861" data-name="Tracé 19861" d="M215.4,210.294a5.8,5.8,0,0,1-.33-1.658,19.811,19.811,0,1,0-.115,7.748,9.511,9.511,0,0,1,.444-2.125v-.481c-.1-.106-.047-.239-.063-.359.016-.122-.042-.255.063-.361V211.5c-.1-.1-.048-.231-.063-.348v-.213c0-.093-.021-.2.063-.271Zm-14.594-3.875h-5.972v4.285h5.657v3.182h-5.657v8.208H190.4V203.222H200.81Z" transform="translate(-175.805 -192.396)" fill="#084"/>
</svg>
