<svg xmlns="http://www.w3.org/2000/svg" width="20.698" height="23.55" viewBox="0 0 20.698 23.55">
  <g id="user" transform="translate(-31)">
    <g id="Groupe_1330" data-name="Groupe 1330" transform="translate(35.14)">
      <g id="Groupe_1329" data-name="Groupe 1329">
        <path id="Tracé_19838" data-name="Tracé 19838" d="M127.209,0a6.209,6.209,0,1,0,6.209,6.209A6.216,6.216,0,0,0,127.209,0Z" transform="translate(-121)" fill="#fff"/>
      </g>
    </g>
    <g id="Groupe_1332" data-name="Groupe 1332" transform="translate(31 13.799)">
      <g id="Groupe_1331" data-name="Groupe 1331">
        <path id="Tracé_19839" data-name="Tracé 19839" d="M49.075,302.677A8.852,8.852,0,0,0,42.729,300h-2.76a8.852,8.852,0,0,0-6.346,2.677A9.049,9.049,0,0,0,31,309.061a.69.69,0,0,0,.69.69H51.008a.69.69,0,0,0,.69-.69A9.049,9.049,0,0,0,49.075,302.677Z" transform="translate(-31 -300)" fill="#fff"/>
      </g>
    </g>
  </g>
</svg>
